# xmcd
#
# Track frame offsets:
#  150
#  18564
#  36742
#  54323
#  69017
#  89716
#  102050
#  115768
#  129782
#  151499
#
# Disc length: 2284 seconds
#
# Revision: 0
# Processed by: cddbd v1.5.1PL0 Copyright (c) Steve Scherf et al.
# Submitted via: Collectorz.com_Music_Collector 6.9
#
DISCID=7b08ea0a
DTITLE=Pat Smillie Band - Letter to Hampton
DYEAR=2004
DGENRE=Blues
TTITLE0=Thirteen Below Zero
TTITLE1=Last Time I Saw Him
TTITLE2=Drowning Down
TTITLE3=Finest Hour
TTITLE4=The Comeback
TTITLE5=Letter to Hampton
TTITLE6=Finally Over You
TTITLE7=Let's Make a Date
TTITLE8=Latanya
TTITLE9=Can We Make This Happen?
EXTD=
EXTT0=
EXTT1=
EXTT2=
EXTT3=
EXTT4=
EXTT5=
EXTT6=
EXTT7=
EXTT8=
EXTT9=
PLAYORDER=
